G04*
G04 #@! TF.GenerationSoftware,Altium Limited,Altium Designer,23.3.1 (30)*
G04*
G04 Layer_Physical_Order=1*
G04 Layer_Color=255*
%FSLAX44Y44*%
%MOMM*%
G71*
G04*
G04 #@! TF.SameCoordinates,964EAC65-20B9-4362-A22B-C6E90DBC7DAB*
G04*
G04*
G04 #@! TF.FilePolarity,Positive*
G04*
G01*
G75*
%ADD11C,0.2540*%
%ADD14C,0.1524*%
%ADD18C,0.3810*%
%ADD21R,1.8034X1.1176*%
G04:AMPARAMS|DCode=22|XSize=1.21mm|YSize=0.59mm|CornerRadius=0.1475mm|HoleSize=0mm|Usage=FLASHONLY|Rotation=0.000|XOffset=0mm|YOffset=0mm|HoleType=Round|Shape=RoundedRectangle|*
%AMROUNDEDRECTD22*
21,1,1.2100,0.2950,0,0,0.0*
21,1,0.9150,0.5900,0,0,0.0*
1,1,0.2950,0.4575,-0.1475*
1,1,0.2950,-0.4575,-0.1475*
1,1,0.2950,-0.4575,0.1475*
1,1,0.2950,0.4575,0.1475*
%
%ADD22ROUNDEDRECTD22*%
%ADD23R,1.1176X1.8034*%
%ADD24R,0.3000X1.4500*%
%ADD25R,0.3000X1.4700*%
%ADD26R,1.3998X1.1999*%
%ADD27O,2.2000X0.6096*%
%ADD28R,1.6500X1.2065*%
%ADD29R,1.3716X1.8542*%
%ADD30R,1.0000X0.7000*%
%ADD31R,0.5080X1.5500*%
%ADD32R,1.5500X0.5080*%
%ADD33R,1.5000X1.2000*%
G04:AMPARAMS|DCode=34|XSize=1.61mm|YSize=0.59mm|CornerRadius=0.0738mm|HoleSize=0mm|Usage=FLASHONLY|Rotation=0.000|XOffset=0mm|YOffset=0mm|HoleType=Round|Shape=RoundedRectangle|*
%AMROUNDEDRECTD34*
21,1,1.6100,0.4425,0,0,0.0*
21,1,1.4625,0.5900,0,0,0.0*
1,1,0.1475,0.7313,-0.2213*
1,1,0.1475,-0.7313,-0.2213*
1,1,0.1475,-0.7313,0.2213*
1,1,0.1475,0.7313,0.2213*
%
%ADD34ROUNDEDRECTD34*%
%ADD35R,1.5500X0.6000*%
%ADD59C,0.5080*%
%ADD60O,3.3000X1.8000*%
%ADD61O,2.0000X3.8000*%
%ADD62C,1.6500*%
%ADD63C,1.7780*%
%ADD64O,1.2000X2.4000*%
%ADD65C,1.2000*%
%ADD66C,2.0000*%
%ADD67C,1.6000*%
%ADD68C,0.6350*%
D11*
X443568Y65689D02*
X457327Y79448D01*
X404876Y39297D02*
X431269Y65689D01*
X443568D01*
X457327Y79448D02*
Y93780D01*
X575468Y82976D02*
X577419Y81026D01*
X587858D01*
X591668Y84836D02*
X603377D01*
X573578Y82976D02*
X575468D01*
X587858Y81026D02*
X591668Y84836D01*
X570230Y86324D02*
X573578Y82976D01*
X404876Y7874D02*
Y39297D01*
X452247Y98860D02*
Y112268D01*
Y98860D02*
X457327Y93780D01*
X447929Y116586D02*
X452247Y112268D01*
X444500Y116586D02*
X447929D01*
X419560Y115098D02*
X421048Y116586D01*
X413080Y112190D02*
X417830D01*
X419560Y113920D01*
Y115098D01*
X421048Y116586D02*
X444500D01*
X603377Y84836D02*
X606806D01*
X609854Y87884D01*
X570230Y86324D02*
Y98200D01*
X705719Y654558D02*
X717296D01*
X704957Y655320D02*
X705719Y654558D01*
X685292Y655320D02*
X704957D01*
X717296Y654558D02*
X717550Y654812D01*
X539496Y717042D02*
Y751586D01*
Y717042D02*
X579374Y677164D01*
X728812Y819393D02*
Y837352D01*
X642076Y840886D02*
X725278D01*
X728812Y837352D01*
X640588Y758444D02*
Y839398D01*
X637159Y758444D02*
X640588D01*
Y839398D02*
X642076Y840886D01*
X727000Y815022D02*
Y817581D01*
X728812Y819393D01*
X606552Y546354D02*
X612998Y539908D01*
X579374Y648208D02*
Y677164D01*
X606552Y546354D02*
Y621030D01*
X579374Y648208D02*
X606552Y621030D01*
X612998Y539908D02*
X637574D01*
X639764Y537718D01*
X566166Y758444D02*
X604266D01*
X546354D02*
X566166D01*
X539496Y751586D02*
X546354Y758444D01*
X615823Y779780D02*
X637159Y758444D01*
X532130Y779780D02*
X615823D01*
X799846Y765986D02*
Y847126D01*
X798358Y848614D02*
X799846Y847126D01*
X572770Y848614D02*
X798358D01*
X752680Y718820D02*
X799846Y765986D01*
X542676Y818520D02*
X572770Y848614D01*
X525088Y818520D02*
X542676D01*
X522934Y820674D02*
X525088Y818520D01*
X449580Y836025D02*
X464931Y820674D01*
X522934D01*
X752680Y718820D02*
X783844Y687656D01*
Y671830D02*
Y687656D01*
X727000Y788872D02*
Y815022D01*
Y788872D02*
X728218Y787654D01*
X501142Y810768D02*
X532130Y779780D01*
X391668Y810768D02*
X501142D01*
X373380Y792480D02*
X391668Y810768D01*
X429006Y866140D02*
X429260Y865886D01*
Y850138D02*
Y865886D01*
X424180Y836025D02*
X427096Y838941D01*
Y847974D01*
X429260Y850138D01*
D14*
X579247Y140843D02*
Y382147D01*
X583311Y107131D02*
Y283591D01*
X588010Y89515D02*
Y182499D01*
X706120Y407924D02*
Y498856D01*
X583311Y283591D02*
X612140Y312420D01*
X579247Y382147D02*
X597760Y400660D01*
X708533Y390144D02*
X708914Y389763D01*
X738886Y374396D02*
Y389763D01*
X685800Y390144D02*
X708533D01*
X708914Y374396D02*
Y389763D01*
Y405130D01*
X706120Y407924D02*
X708914Y405130D01*
X654812Y391160D02*
X655320Y390652D01*
X597760Y400660D02*
X600860D01*
X625960Y391160D02*
X654812D01*
X655320Y390652D02*
X655828Y390144D01*
X655066Y390906D02*
X655320Y390652D01*
X655066Y390906D02*
Y411480D01*
X738886Y389763D02*
Y405130D01*
X600860Y356417D02*
Y381660D01*
X612140Y337820D02*
X631190Y318770D01*
X599059Y251206D02*
X612140Y264287D01*
Y287020D01*
X739140Y370713D02*
Y374142D01*
X738886Y374396D02*
X739140Y374142D01*
Y370713D02*
X743585Y366268D01*
X709930Y338328D02*
Y373380D01*
X708914Y374396D02*
X709930Y373380D01*
X600588Y356145D02*
X600860Y356417D01*
X631190Y251206D02*
Y318770D01*
X600588Y323972D02*
Y356145D01*
Y323972D02*
X612140Y312420D01*
X631190Y213487D02*
Y221234D01*
X595630Y251206D02*
X599059D01*
X599944Y214253D02*
Y216920D01*
X595630Y221234D02*
X599944Y216920D01*
X613791Y200406D02*
X617220D01*
X618109D02*
X631190Y213487D01*
X617220Y200406D02*
X618109D01*
X599944Y214253D02*
X613791Y200406D01*
X588010Y182499D02*
X605917Y200406D01*
X613791D01*
X617220Y170434D02*
Y185420D01*
X777240Y392176D02*
X792226D01*
X743585Y366268D02*
X760730D01*
X759841Y389763D02*
X762254Y392176D01*
X738886Y389763D02*
X759841D01*
X340650Y84582D02*
X342936Y86868D01*
X339344Y84582D02*
X340650D01*
X342936Y86868D02*
X359002D01*
X359080Y86790D01*
X302695Y95780D02*
X311577D01*
X314901Y92456D01*
X298822Y99653D02*
X302695Y95780D01*
X314901Y92456D02*
X315976D01*
X565032Y89736D02*
Y98256D01*
X535940Y84074D02*
X559370D01*
X565032Y98256D02*
X565230Y98454D01*
X559370Y84074D02*
X565032Y89736D01*
X445462Y61117D02*
X466079Y81735D01*
X422910Y39370D02*
X444657Y61117D01*
X466079Y81735D02*
Y129032D01*
X444657Y61117D02*
X445462D01*
X542544Y102362D02*
X546452Y98454D01*
X560230D01*
X301010Y106965D02*
X301152Y106823D01*
X319643D02*
X319786Y106680D01*
X301152Y106823D02*
X319643D01*
X340868Y103886D02*
Y119380D01*
Y103886D02*
X345264Y99490D01*
X808097Y501396D02*
X808990Y502289D01*
Y556006D02*
X832104Y579120D01*
X708660Y501396D02*
X808097D01*
X808990Y502289D02*
Y556006D01*
X706120Y498856D02*
X708660Y501396D01*
X832104Y579120D02*
X862405D01*
X580230Y42106D02*
Y54200D01*
X581914Y39116D02*
Y40422D01*
X580230Y42106D02*
X581914Y40422D01*
X570230Y54200D02*
Y76454D01*
X567182Y38354D02*
X567650D01*
X575032Y45736D02*
Y54256D01*
X567650Y38354D02*
X575032Y45736D01*
Y54256D02*
X575230Y54454D01*
X574040Y116078D02*
X574258D01*
X580230Y110106D01*
Y104050D02*
Y110106D01*
Y98200D02*
Y104050D01*
X345264Y99490D02*
X359080D01*
X584093Y85598D02*
X588010Y89515D01*
X580230Y104050D02*
X583311Y107131D01*
X567436Y129032D02*
X579247Y140843D01*
X579312Y85598D02*
X584093D01*
X575428Y89482D02*
X579312Y85598D01*
X575428Y89482D02*
Y98002D01*
X575230Y98200D02*
X575428Y98002D01*
X466079Y129032D02*
X567436D01*
X364723D02*
X466079D01*
X289462Y103275D02*
Y136242D01*
X293084Y99653D02*
X298822D01*
X289462Y103275D02*
X293084Y99653D01*
X242062Y183642D02*
X289462Y136242D01*
X252984Y122682D02*
X266793D01*
X273010Y116465D01*
X278110D01*
X363830Y128139D02*
X364723Y129032D01*
X363830Y112190D02*
Y128139D01*
X359080Y112190D02*
X363830D01*
X444500Y86614D02*
Y101219D01*
X377330Y74090D02*
X379694Y76454D01*
X359080Y74090D02*
X377330D01*
X379694Y76454D02*
X381000D01*
X765127Y555104D02*
X765556Y554675D01*
Y542290D02*
Y554675D01*
X814832Y623062D02*
Y641604D01*
X813816Y642620D02*
X814832Y641604D01*
X790956Y542544D02*
Y556260D01*
X269494Y364236D02*
X274967Y358763D01*
X287024D01*
X248068Y382778D02*
X261874D01*
X277622Y374571D02*
Y402967D01*
X272411Y410333D02*
X273304Y411226D01*
X277622Y402967D02*
X278515Y403860D01*
X272411Y374035D02*
X281448Y364998D01*
X277622Y374571D02*
X283131Y369062D01*
X272411Y374035D02*
Y410333D01*
X292590Y346366D02*
Y353198D01*
X287024Y358763D02*
X292590Y353198D01*
Y346366D02*
X294368Y344588D01*
X281448Y364998D02*
X291338D01*
X283131Y369062D02*
X293021D01*
X291338Y364998D02*
X300482Y355854D01*
X293021Y369062D02*
X308084Y353999D01*
X300482Y346348D02*
X302242Y344588D01*
X310370D02*
Y349798D01*
X308084Y352084D02*
X310370Y349798D01*
X308084Y352084D02*
Y353999D01*
X300482Y346348D02*
Y355854D01*
X247814Y382524D02*
X248068Y382778D01*
X324501Y328533D02*
X325374Y327660D01*
X318244Y339378D02*
Y344588D01*
Y339378D02*
X324501Y333121D01*
Y328533D02*
Y333121D01*
X77515Y491236D02*
X92710D01*
X77388Y491109D02*
X77515Y491236D01*
X173990Y202184D02*
X192532Y183642D01*
X242062D01*
X223520Y202184D02*
X234950D01*
X312362Y124772D01*
Y112579D02*
Y124772D01*
X308936Y109153D02*
X312362Y112579D01*
X301010Y106965D02*
X303198Y109153D01*
X308936D01*
X261763Y106823D02*
X277967D01*
X278110Y106965D01*
X261620Y106680D02*
X261763Y106823D01*
X125222Y592836D02*
X150114D01*
X82042Y372065D02*
Y383540D01*
X27606Y281051D02*
X32876Y275781D01*
X75171Y223139D02*
X77388D01*
X25388Y281051D02*
X27606D01*
X32876Y265434D02*
Y275781D01*
Y265434D02*
X75171Y223139D01*
X32876Y355603D02*
Y362141D01*
Y355603D02*
X75171Y313309D01*
X25388Y367411D02*
X27606D01*
X32876Y362141D01*
X75171Y313309D02*
X77388D01*
X27606Y458851D02*
X32876Y453581D01*
Y441964D02*
Y453581D01*
Y441964D02*
X75171Y399669D01*
X77388D01*
X25388Y458851D02*
X27606D01*
X278515Y403860D02*
X303530D01*
X310896Y411226D01*
X273304D02*
X290576D01*
X310370Y328948D02*
Y344588D01*
X376174Y371348D02*
X391160D01*
X376174Y400558D02*
X391160D01*
X317373Y373888D02*
X331052D01*
X331814Y374650D01*
X317373Y390398D02*
X331560D01*
X331814Y390652D01*
X302242Y308338D02*
Y344588D01*
X418715Y451358D02*
X419608Y452251D01*
X393700Y451358D02*
X418715D01*
X419608Y452251D02*
Y468660D01*
X337566Y452251D02*
Y468092D01*
X338459Y451358D02*
X363728D01*
X337566Y452251D02*
X338459Y451358D01*
X400014Y461101D02*
Y489156D01*
X393700Y454787D02*
X400014Y461101D01*
X393700Y451358D02*
Y454787D01*
X389713Y498457D02*
X390713D01*
X400014Y489156D01*
X363728Y477473D02*
X367712Y481457D01*
X363728Y451358D02*
Y477473D01*
X390596Y467050D02*
Y480574D01*
X389713Y481457D02*
X390596Y480574D01*
X366014Y500156D02*
X367713Y498457D01*
X366014Y500156D02*
Y511048D01*
X390101Y447759D02*
X393700Y451358D01*
X386719Y447759D02*
X390101D01*
X345614Y406654D02*
X386719Y447759D01*
X331814Y406654D02*
X345614D01*
X337024Y414528D02*
X338802Y416306D01*
Y423003D01*
X363728Y447929D02*
Y451358D01*
X331814Y414528D02*
X337024D01*
X338802Y423003D02*
X363728Y447929D01*
X419608Y483870D02*
Y498632D01*
X242316Y494030D02*
Y511018D01*
X255300Y524002D01*
X242316Y494030D02*
X255778Y480568D01*
X270510Y494839D02*
Y548386D01*
X262364Y486693D02*
X270510Y494839D01*
X258318Y560578D02*
X270510Y548386D01*
X255300Y524002D02*
Y532160D01*
X258318Y535178D01*
X255778Y422492D02*
Y480568D01*
X247814Y414528D02*
X255778Y422492D01*
X270238Y484247D02*
X271131Y485140D01*
X290576D01*
X270238Y428588D02*
Y484247D01*
X290576Y485140D02*
X300736Y495300D01*
X685419Y693547D02*
X708025D01*
X708152Y693674D01*
X685292Y693420D02*
X685419Y693547D01*
X337566Y482854D02*
Y498064D01*
X685419Y705993D02*
X708279D01*
X685292Y706120D02*
X685419Y705993D01*
X708279D02*
X708406Y705866D01*
X692921Y668020D02*
X696223Y671322D01*
X721483D01*
X722376Y672215D02*
Y744249D01*
X721483Y671322D02*
X722376Y672215D01*
X677340Y668020D02*
X692921D01*
X715899Y750726D02*
X722376Y744249D01*
X721868Y800057D02*
Y801319D01*
X719145Y797333D02*
X721868Y800057D01*
X718623Y797333D02*
X719145D01*
X715899Y780698D02*
Y794610D01*
X718623Y797333D01*
X721868Y770607D02*
Y774729D01*
X715899Y750726D02*
Y764638D01*
X721868Y770607D01*
X728218Y757682D02*
X728345Y757809D01*
Y772414D01*
X715899Y780698D02*
X721868Y774729D01*
X711001Y812187D02*
X721868Y801319D01*
X363220Y202184D02*
X388112Y227076D01*
Y292354D01*
X337024Y358648D02*
X338802Y356870D01*
Y341664D02*
Y356870D01*
Y341664D02*
X388112Y292354D01*
X331814Y358648D02*
X337024D01*
X344678Y229997D02*
Y294640D01*
X316865Y202184D02*
X344678Y229997D01*
X310370Y328948D02*
X344678Y294640D01*
X270510Y202184D02*
X297180Y228854D01*
Y303276D01*
X302242Y308338D01*
X223520Y202184D02*
X250698Y229362D01*
Y294386D01*
X286240Y329928D01*
Y344588D01*
X185928Y202184D02*
X201168Y217424D01*
X173990Y202184D02*
X185928D01*
X201168Y217424D02*
Y296287D01*
X204093Y299212D01*
X239822D01*
X276588Y335978D01*
Y342810D01*
X278366Y344588D01*
X226441Y413639D02*
X229997D01*
X236982Y406654D01*
X220345Y419735D02*
Y422148D01*
Y419735D02*
X226441Y413639D01*
X227580Y397252D02*
X236982Y406654D01*
X247814D01*
X220599Y396748D02*
X221103Y397252D01*
X227580D01*
X190627Y396748D02*
X205994D01*
X300736Y495300D02*
Y518160D01*
X262364Y428588D02*
Y486693D01*
X283718Y535178D02*
X300736Y518160D01*
X224028Y535178D02*
X258318D01*
X170688Y534670D02*
X171196Y535178D01*
X194056D01*
X25262Y592060D02*
X89762D01*
X25262D02*
X43300Y574022D01*
X23762Y592060D02*
X25262D01*
X43300Y569976D02*
Y574022D01*
Y569976D02*
X48126Y565150D01*
X89762Y592060D02*
X124446D01*
X125222Y592836D01*
X663956Y547785D02*
Y561340D01*
X663389Y547218D02*
X663956Y547785D01*
X651764Y537210D02*
X662881D01*
X663389Y537718D01*
X671691Y532850D02*
Y578973D01*
X669757Y530916D02*
X671691Y532850D01*
X666087Y530916D02*
X669757D01*
X663389Y528218D02*
X666087Y530916D01*
X663194Y587470D02*
X671691Y578973D01*
X711001Y812187D02*
Y815022D01*
X685292Y718820D02*
X707263D01*
X663194Y587470D02*
Y653874D01*
X677340Y668020D01*
X667258Y641727D02*
X668151Y642620D01*
X667258Y589153D02*
Y641727D01*
X668151Y642620D02*
X685292D01*
X621284Y599440D02*
X636270D01*
X653664Y686046D02*
X654557Y686938D01*
X651256Y599440D02*
X653664Y601848D01*
X679073Y686938D02*
X685292Y680720D01*
X653664Y601848D02*
Y686046D01*
X654557Y686938D02*
X679073D01*
X635762Y707615D02*
X637696Y709549D01*
X635762Y677037D02*
X644652Y668147D01*
X635762Y677037D02*
Y707615D01*
X672469Y590582D02*
X710567D01*
X671576Y591475D02*
Y629027D01*
X672469Y629920D02*
X685292D01*
X671576Y629027D02*
X672469Y629920D01*
X667258Y589153D02*
X713867Y542544D01*
X671576Y591475D02*
X672469Y590582D01*
X673226Y709549D02*
X676655Y706120D01*
X637696Y709549D02*
X673226D01*
X644652Y664718D02*
Y668147D01*
X676655Y706120D02*
X685292D01*
X677340Y693420D02*
X685292D01*
X644652Y697230D02*
X673530D01*
X677340Y693420D01*
X566166Y716661D02*
Y728472D01*
Y716661D02*
X614680Y668147D01*
Y664718D02*
Y668147D01*
X604266Y711073D02*
X614680Y700659D01*
X604266Y711073D02*
Y728472D01*
X614680Y697230D02*
Y700659D01*
X614604Y697306D02*
X614680Y697230D01*
X612902Y666496D02*
X614680Y664718D01*
X710567Y590582D02*
X710662Y590677D01*
X745556D01*
X764129Y572104D01*
X765128D01*
X713867Y542544D02*
X717296D01*
X729567D01*
X778764Y549627D02*
Y559468D01*
X778637Y535588D02*
Y549500D01*
Y535588D02*
X778764Y535461D01*
X778637Y549500D02*
X778764Y549627D01*
Y534162D02*
Y535461D01*
X766128Y572104D02*
X778764Y559468D01*
X770382Y525780D02*
X778764Y534162D01*
X766128Y572104D02*
X790545D01*
X765128D02*
X766128D01*
X740410Y525780D02*
Y552388D01*
X743127Y555104D01*
X790545Y572104D02*
X790956Y572516D01*
X729567Y542544D02*
X742127Y555104D01*
X743127D01*
X373380Y836025D02*
X393303Y816102D01*
X521040D01*
X531962Y805180D01*
X782828Y641604D02*
X783844Y642620D01*
X772160Y642497D02*
Y661240D01*
X773053Y641604D02*
X782828D01*
X772160Y642497D02*
X773053Y641604D01*
X752680Y680720D02*
X772160Y661240D01*
X744728Y680720D02*
X752680D01*
X531962Y805180D02*
X532130D01*
X398780Y836025D02*
Y865886D01*
X399034Y866140D01*
X77388Y458851D02*
X82042Y463505D01*
Y474980D01*
X77388Y367411D02*
X82042Y372065D01*
X80772Y284435D02*
Y297180D01*
X77388Y281051D02*
X80772Y284435D01*
X77388Y190881D02*
X80772Y194265D01*
Y207010D01*
X220980Y86614D02*
Y101600D01*
X609854Y57912D02*
Y72898D01*
X740156Y575075D02*
X743127Y572104D01*
X740156Y575075D02*
Y584200D01*
X717296Y556260D02*
Y572516D01*
X140716Y534670D02*
X156972D01*
X18154Y565150D02*
X31750D01*
X89916Y607568D02*
Y621906D01*
X89762Y622060D02*
X89916Y621906D01*
X23762Y622060D02*
X23876Y621946D01*
Y607060D02*
Y621946D01*
X798830Y671322D02*
X813308D01*
X813816Y671830D01*
X640842Y728726D02*
Y743458D01*
X640588Y728472D02*
X640842Y728726D01*
X240030Y738124D02*
Y752856D01*
X202438Y815832D02*
Y829818D01*
X201930Y815324D02*
X202438Y815832D01*
X240030Y768096D02*
Y815324D01*
D18*
X150678Y715462D02*
Y804543D01*
X148955Y806265D02*
X150678Y804543D01*
Y715462D02*
X152400Y713740D01*
X240030Y845296D02*
X277606D01*
X311912Y879602D02*
X483108D01*
X277606Y845296D02*
X311912Y879602D01*
X483108D02*
X532130Y830580D01*
X201930Y845296D02*
X240030D01*
X178986D02*
X201930D01*
X148955Y806265D02*
Y815265D01*
X178986Y845296D01*
D21*
X595630Y221234D02*
D03*
Y251206D02*
D03*
X617220Y200406D02*
D03*
Y170434D02*
D03*
X631190Y221234D02*
D03*
Y251206D02*
D03*
X609854Y87884D02*
D03*
Y57912D02*
D03*
X419608Y468660D02*
D03*
Y498632D02*
D03*
X728218Y787654D02*
D03*
Y757682D02*
D03*
X640588Y758444D02*
D03*
Y728472D02*
D03*
X240030Y768096D02*
D03*
Y738124D02*
D03*
X220980Y86614D02*
D03*
Y116586D02*
D03*
X337566Y498064D02*
D03*
Y468092D02*
D03*
X790956Y572516D02*
D03*
Y542544D02*
D03*
X717296D02*
D03*
Y572516D02*
D03*
X566166Y728472D02*
D03*
Y758444D02*
D03*
X604266Y728472D02*
D03*
Y758444D02*
D03*
X201930Y815324D02*
D03*
Y845296D02*
D03*
X240030Y815324D02*
D03*
Y845296D02*
D03*
X125222Y622808D02*
D03*
Y592836D02*
D03*
X444500Y86614D02*
D03*
Y116586D02*
D03*
D22*
X600860Y381660D02*
D03*
X625960Y391160D02*
D03*
X600860Y400660D02*
D03*
D23*
X685800Y390144D02*
D03*
X655828D02*
D03*
X739140Y374142D02*
D03*
X709168D02*
D03*
X738886Y405130D02*
D03*
X708914D02*
D03*
X792226Y392176D02*
D03*
X762254D02*
D03*
X393700Y451358D02*
D03*
X363728D02*
D03*
X224028Y535178D02*
D03*
X194056D02*
D03*
X614680Y664718D02*
D03*
X644652D02*
D03*
X614680Y697230D02*
D03*
X644652D02*
D03*
X429006Y866140D02*
D03*
X399034D02*
D03*
X140716Y534670D02*
D03*
X170688D02*
D03*
X18154Y565150D02*
D03*
X48126D02*
D03*
X361188Y400558D02*
D03*
X391160D02*
D03*
X361188Y371348D02*
D03*
X391160D02*
D03*
X220599Y396748D02*
D03*
X190627D02*
D03*
X770382Y525780D02*
D03*
X740410D02*
D03*
X813816Y642620D02*
D03*
X783844D02*
D03*
Y671830D02*
D03*
X813816D02*
D03*
X651256Y599440D02*
D03*
X621284D02*
D03*
D24*
X560230Y54454D02*
D03*
D25*
X565230D02*
D03*
X570230D02*
D03*
X575230D02*
D03*
X580230D02*
D03*
Y98454D02*
D03*
X575230D02*
D03*
X570230D02*
D03*
X565230D02*
D03*
X560230D02*
D03*
D26*
X389713Y498457D02*
D03*
X367713D02*
D03*
X389713Y481457D02*
D03*
X367712D02*
D03*
X765128Y572104D02*
D03*
X743127D02*
D03*
X765127Y555104D02*
D03*
X743127D02*
D03*
D27*
X685292Y718820D02*
D03*
Y706120D02*
D03*
Y693420D02*
D03*
Y680720D02*
D03*
Y668020D02*
D03*
Y655320D02*
D03*
Y642620D02*
D03*
Y629920D02*
D03*
X744728D02*
D03*
Y642620D02*
D03*
Y655320D02*
D03*
Y668020D02*
D03*
Y680720D02*
D03*
Y693420D02*
D03*
Y706120D02*
D03*
Y718820D02*
D03*
D28*
X25388Y458851D02*
D03*
X77388D02*
D03*
X25388Y491109D02*
D03*
X77388D02*
D03*
X25388Y281051D02*
D03*
X77388D02*
D03*
X25388Y313309D02*
D03*
X77388D02*
D03*
X25388Y367411D02*
D03*
X77388D02*
D03*
X25388Y399669D02*
D03*
X77388D02*
D03*
X25388Y190881D02*
D03*
X77388D02*
D03*
X25388Y223139D02*
D03*
X77388D02*
D03*
D29*
X220345Y422148D02*
D03*
X189103D02*
D03*
D30*
X663389Y528218D02*
D03*
Y537718D02*
D03*
Y547218D02*
D03*
X639764D02*
D03*
Y537718D02*
D03*
Y528218D02*
D03*
D31*
X318244Y344588D02*
D03*
X310370D02*
D03*
X302242D02*
D03*
X294368D02*
D03*
X286240D02*
D03*
X278366D02*
D03*
X270238D02*
D03*
X262364D02*
D03*
Y428588D02*
D03*
X270238D02*
D03*
X278366D02*
D03*
X286240D02*
D03*
X294368D02*
D03*
X302242D02*
D03*
X310370D02*
D03*
X318244D02*
D03*
D32*
X247814Y358648D02*
D03*
Y366522D02*
D03*
Y374650D02*
D03*
Y382524D02*
D03*
Y390652D02*
D03*
Y398526D02*
D03*
Y406654D02*
D03*
Y414528D02*
D03*
X331814D02*
D03*
Y406654D02*
D03*
Y398526D02*
D03*
Y390652D02*
D03*
Y382524D02*
D03*
Y374650D02*
D03*
Y366522D02*
D03*
Y358648D02*
D03*
D33*
X23762Y592060D02*
D03*
X89762Y622060D02*
D03*
Y592060D02*
D03*
X23762Y622060D02*
D03*
D34*
X278110Y116465D02*
D03*
Y106965D02*
D03*
Y97465D02*
D03*
X301010D02*
D03*
Y106965D02*
D03*
Y116465D02*
D03*
D35*
X413080Y74090D02*
D03*
Y86790D02*
D03*
Y99490D02*
D03*
Y112190D02*
D03*
X359080Y74090D02*
D03*
Y86790D02*
D03*
Y99490D02*
D03*
Y112190D02*
D03*
D59*
X592836Y10850D02*
Y74295D01*
X603377Y84836D01*
X589860Y7874D02*
X592836Y10850D01*
X404876Y7874D02*
X589860D01*
X189048D02*
X404876D01*
X217551Y116586D02*
X237617D01*
X256738Y97465D01*
X278110D01*
X23737Y489458D02*
X73521Y539242D01*
X108458D01*
X110744Y504190D02*
Y541528D01*
X108458Y539242D02*
X110744Y541528D01*
Y571572D01*
X11612Y489458D02*
X23737D01*
X113720Y574548D02*
X269748D01*
X110744Y571572D02*
X113720Y574548D01*
X110744Y504190D02*
X118872Y496062D01*
X178816D02*
X189103Y485775D01*
Y422148D02*
Y485775D01*
X118872Y496062D02*
X178816D01*
X296418Y390398D02*
X309118D01*
X189048Y7874D02*
X192024Y10850D01*
Y91059D02*
X217551Y116586D01*
X11612Y7874D02*
X189048D01*
X192024Y10850D02*
Y91059D01*
X8636Y10850D02*
Y239891D01*
Y10850D02*
X11612Y7874D01*
X269748Y574548D02*
Y619832D01*
X266772Y622808D02*
X269748Y619832D01*
X125222Y622808D02*
X266772D01*
X8636Y239891D02*
X19678Y228849D01*
X8636Y239891D02*
Y330061D01*
X23171Y223139D02*
X25388D01*
X19678Y226632D02*
X23171Y223139D01*
X19678Y226632D02*
Y228849D01*
Y316801D02*
X23171Y313309D01*
X19678Y316801D02*
Y319019D01*
X8636Y330061D02*
X19678Y319019D01*
X23171Y313309D02*
X25388D01*
X8636Y330061D02*
Y416421D01*
X19678Y403162D02*
Y405379D01*
X8636Y416421D02*
X19678Y405379D01*
X8636Y486482D02*
X11612Y489458D01*
X23171Y399669D02*
X25388D01*
X19678Y403162D02*
X23171Y399669D01*
X8636Y416421D02*
Y486482D01*
X309118Y390398D02*
Y393817D01*
Y386979D02*
Y390398D01*
X322199Y398653D02*
X322326Y398526D01*
X309118Y393817D02*
X313954Y398653D01*
X309118Y386979D02*
X313954Y382143D01*
X320792D02*
X321173Y382524D01*
X313954Y382143D02*
X320792D01*
X321173Y382524D02*
X331814D01*
X313954Y398653D02*
X322199D01*
X353441Y382524D02*
X361188Y374777D01*
Y371348D02*
Y374777D01*
X331814Y382524D02*
X353441D01*
X359156Y398526D02*
X361188Y400558D01*
X331814Y398526D02*
X359156D01*
X322326D02*
X331814D01*
X269748Y574548D02*
X283718Y560578D01*
X207010Y723646D02*
X252984D01*
X282321Y752983D01*
X533517D01*
X539253Y751829D02*
X539496Y751586D01*
X534671Y751829D02*
X539253D01*
X533517Y752983D02*
X534671Y751829D01*
X174498Y691134D02*
X207010Y723646D01*
X125222Y688158D02*
X128198Y691134D01*
X125222Y622808D02*
Y688158D01*
X128198Y691134D02*
X174498D01*
D60*
X765875Y106105D02*
D03*
X123955Y759765D02*
D03*
D61*
X800875Y59605D02*
D03*
X740875D02*
D03*
X148955Y806265D02*
D03*
X88955D02*
D03*
D62*
X861770Y180340D02*
D03*
X836370D02*
D03*
X810970D02*
D03*
X612140Y337820D02*
D03*
Y312420D02*
D03*
Y287020D02*
D03*
X532130Y830580D02*
D03*
Y805180D02*
D03*
Y779780D02*
D03*
D63*
X862405Y434340D02*
D03*
Y579120D02*
D03*
X173990Y252984D02*
D03*
Y278384D02*
D03*
Y202184D02*
D03*
Y227584D02*
D03*
X270510Y252984D02*
D03*
Y278384D02*
D03*
Y202184D02*
D03*
Y227584D02*
D03*
X223520Y252984D02*
D03*
Y278384D02*
D03*
Y202184D02*
D03*
Y227584D02*
D03*
X316865Y252984D02*
D03*
Y278384D02*
D03*
Y202184D02*
D03*
Y227584D02*
D03*
X363220Y252984D02*
D03*
Y278384D02*
D03*
Y202184D02*
D03*
Y227584D02*
D03*
X408940Y252984D02*
D03*
Y278384D02*
D03*
Y202184D02*
D03*
Y227584D02*
D03*
X258318Y560578D02*
D03*
X283718D02*
D03*
X258318Y535178D02*
D03*
X283718D02*
D03*
X258318Y509778D02*
D03*
X283718D02*
D03*
X862405Y528320D02*
D03*
Y502920D02*
D03*
Y553720D02*
D03*
Y383540D02*
D03*
Y358140D02*
D03*
Y408940D02*
D03*
X398780Y836025D02*
D03*
X373380D02*
D03*
X449580D02*
D03*
X424180D02*
D03*
Y792480D02*
D03*
X449580D02*
D03*
X373380D02*
D03*
X398780D02*
D03*
X267970Y39370D02*
D03*
X242570D02*
D03*
X318770D02*
D03*
X293370D02*
D03*
X448310D02*
D03*
X422910D02*
D03*
X499110D02*
D03*
X473710D02*
D03*
X127000Y713740D02*
D03*
X152400D02*
D03*
X76200D02*
D03*
X101600D02*
D03*
D64*
X674000Y871538D02*
D03*
Y824038D02*
D03*
X748400D02*
D03*
Y871538D02*
D03*
D65*
X727000Y815022D02*
D03*
X719002Y827058D02*
D03*
X703002D02*
D03*
X711001Y815022D02*
D03*
X695001D02*
D03*
D66*
X842010Y281660D02*
D03*
Y246660D02*
D03*
D67*
X131560Y73953D02*
D03*
X66560D02*
D03*
D68*
X709930Y338328D02*
D03*
X655066Y411480D02*
D03*
X617220Y185420D02*
D03*
X777240Y392176D02*
D03*
X760730Y366268D02*
D03*
X339344Y84582D02*
D03*
X315976Y92456D02*
D03*
X535940Y84074D02*
D03*
X542544Y102362D02*
D03*
X319786Y106680D02*
D03*
X340868Y119380D02*
D03*
X581914Y39116D02*
D03*
X570230Y76454D02*
D03*
X567182Y38354D02*
D03*
X574040Y116078D02*
D03*
X252984Y122682D02*
D03*
X444500Y101219D02*
D03*
X381000Y76454D02*
D03*
X765556Y542290D02*
D03*
X814832Y623062D02*
D03*
X790956Y556260D02*
D03*
X269494Y364236D02*
D03*
X261874Y382778D02*
D03*
X325374Y327660D02*
D03*
X92710Y491236D02*
D03*
X296418Y390398D02*
D03*
X261620Y106680D02*
D03*
X150114Y592836D02*
D03*
X82042Y383540D02*
D03*
X310896Y411226D02*
D03*
X290576D02*
D03*
X317373Y373888D02*
D03*
Y390398D02*
D03*
X419608Y483870D02*
D03*
X390596Y467050D02*
D03*
X376174Y400558D02*
D03*
X653542Y554228D02*
D03*
X708152Y693674D02*
D03*
X337566Y482854D02*
D03*
X708406Y705866D02*
D03*
X708914Y661543D02*
D03*
X728345Y772414D02*
D03*
X531622Y743458D02*
D03*
X663956Y561340D02*
D03*
X651764Y537210D02*
D03*
X717550Y654812D02*
D03*
X707263Y718820D02*
D03*
X636270Y599440D02*
D03*
X539496Y751586D02*
D03*
X640842Y743458D02*
D03*
X798830Y671322D02*
D03*
X240030Y752856D02*
D03*
X202438Y829818D02*
D03*
X80772Y207010D02*
D03*
Y297180D02*
D03*
X82042Y474980D02*
D03*
X31750Y565150D02*
D03*
X23876Y607060D02*
D03*
X89916Y607568D02*
D03*
X156972Y534670D02*
D03*
X205994Y396748D02*
D03*
X376174Y371348D02*
D03*
X366014Y511048D02*
D03*
X220980Y101600D02*
D03*
X609854Y72898D02*
D03*
X740156Y584200D02*
D03*
X717296Y556260D02*
D03*
M02*
