M48
;Layer_Color=9474304
;FILE_FORMAT=4:4
METRIC,LZ
;TYPE=PLATED
T1F00S00C0.3302
T2F00S00C0.8000
T4F00S00C0.9000
T5F00S00C1.0000
T7F00S00C1.0160
T8F00S00C1.1000
%
T01
X0022098Y001016
X0026162Y0010668
X00252984Y00122682
X00319786Y0010668
X00315976Y00092456
X00339344Y00084582
X00340868Y0011938
X00381Y00076454
X004445Y00101219
X0053594Y00084074
X00542544Y00102362
X0057404Y00116078
X0057023Y00076454
X00567182Y00038354
X00581914Y00039116
X00609854Y00072898
X0061722Y0018542
X0070993Y00338328
X0076073Y00366268
X0077724Y00392176
X00655066Y0041148
X00651764Y0053721
X00419608Y0048387
X00390596Y0046705
X00366014Y00511048
X00337566Y00482854
X00310896Y00411226
X00290576
X00296418Y00390398
X00317373
Y00373888
X00325374Y0032766
X00269494Y00364236
X00261874Y00382778
X00205994Y00396748
X00376174Y00400558
Y00371348
X00156972Y0053467
X0009271Y00491236
X00082042Y0047498
Y0038354
X00080772Y0029718
Y0020701
X0003175Y0056515
X00023876Y0060706
X00089916Y00607568
X00150114Y00592836
X0024003Y00752856
X00202438Y00829818
X00539496Y00751586
X00531622Y00743458
X00640842
X00707263Y0071882
X00708406Y00705866
X00708152Y00693674
X00708914Y00661543
X0071755Y00654812
X00740156Y005842
X00717296Y0055626
X00663956Y0056134
X00653542Y00554228
X0063627Y0059944
X00765556Y0054229
X00790956Y0055626
X00814832Y00623062
X0079883Y00671322
X00728345Y00772414
T02
X00695001Y00815022
X00711001
X00727
X00719002Y00827058
X00703002
T04
X0006656Y00073953
X0013156
T05
X0084201Y0024666
Y0028166
T07
X0024257Y0003937
X0026797
X0029337
X0031877
X0042291
X0044831
X0047371
X0049911
X00862405Y0035814
Y0038354
Y0040894
Y0043434
Y0050292
Y0052832
X0040894Y00278384
Y00252984
Y00227584
Y00202184
X0036322
Y00227584
Y00252984
Y00278384
X00316865
Y00252984
Y00227584
Y00202184
X0027051
Y00227584
Y00252984
Y00278384
X0022352
Y00252984
Y00227584
Y00202184
X0017399
Y00227584
Y00252984
Y00278384
X00127Y0071374
X001016
X000762
X001524
X0037338Y0079248
X0039878
X0042418
X0044958
Y00836025
X0042418
X0039878
X0037338
X00862405Y0057912
Y0055372
T08
X0061214Y0028702
Y0031242
Y0033782
X0081097Y0018034
X0083637
X0086177
X00283718Y00509778
Y00535178
X00258318
Y00509778
Y00560578
X00283718
X0053213Y0077978
Y0080518
Y0083058
M30
