G04*
G04 #@! TF.GenerationSoftware,Altium Limited,Altium Designer,23.3.1 (30)*
G04*
G04 Layer_Physical_Order=4*
G04 Layer_Color=16711680*
%FSLAX44Y44*%
%MOMM*%
G71*
G04*
G04 #@! TF.SameCoordinates,964EAC65-20B9-4362-A22B-C6E90DBC7DAB*
G04*
G04*
G04 #@! TF.FilePolarity,Positive*
G04*
G01*
G75*
%ADD11C,0.2540*%
%ADD14C,0.1524*%
%ADD59C,0.5080*%
%ADD60O,3.3000X1.8000*%
%ADD61O,2.0000X3.8000*%
%ADD62C,1.6500*%
%ADD63C,1.7780*%
%ADD64O,1.2000X2.4000*%
%ADD65C,1.2000*%
%ADD66C,2.0000*%
%ADD67C,1.6000*%
%ADD68C,0.6350*%
D11*
X424180Y836025D02*
X449580D01*
X725170Y662432D02*
Y730540D01*
X717550Y654812D02*
X725170Y662432D01*
Y730540D02*
X726658Y732028D01*
X744220D01*
X772160Y759968D01*
X663956Y561340D02*
Y579120D01*
X717550Y632714D01*
Y654812D01*
X772160Y759968D02*
Y842046D01*
X770672Y843534D02*
X772160Y842046D01*
X735477Y843534D02*
X770672D01*
X719002Y827058D02*
X735477Y843534D01*
X538767Y752315D02*
X539496Y751586D01*
X502920Y753803D02*
Y826770D01*
Y753803D02*
X504408Y752315D01*
X538767D01*
X494792Y834898D02*
X502920Y826770D01*
X450707Y834898D02*
X494792D01*
X449580Y836025D02*
X450707Y834898D01*
D14*
X709930Y337820D02*
Y338328D01*
X603377Y231267D02*
X709930Y337820D01*
X655066Y411480D02*
X677926Y434340D01*
X373380Y836025D02*
X398780D01*
X298934Y137898D02*
X363220Y202184D01*
X66560Y73953D02*
X130505Y137898D01*
X298934D01*
X315976Y92456D02*
X326162D01*
X327051Y93345D01*
X258953Y82423D02*
X333121D01*
X338421Y83659D02*
X339344Y84582D01*
X334357Y83659D02*
X338421D01*
X333121Y82423D02*
X334357Y83659D01*
X327051Y93345D02*
X526669D01*
X535940Y84074D01*
X252984Y88392D02*
X258953Y82423D01*
X542544Y102362D02*
Y102993D01*
X535555Y109982D02*
X542544Y102993D01*
X429278Y109982D02*
X535555D01*
X319786Y106680D02*
X320040Y106426D01*
X425722D01*
X429278Y109982D01*
X340868Y119380D02*
X341122Y119634D01*
Y125334D01*
X342015Y126227D01*
X341122Y125334D02*
Y134366D01*
X565415Y126227D02*
X569266Y122376D01*
X342015Y126227D02*
X565415D01*
X569266Y120852D02*
Y122376D01*
Y120852D02*
X574040Y116078D01*
X341122Y134366D02*
X408940Y202184D01*
X862405Y434340D02*
X881380Y415365D01*
Y162437D02*
Y415365D01*
X880487Y161544D02*
X881380Y162437D01*
X855166Y161544D02*
X880487D01*
X836370Y180340D02*
X855166Y161544D01*
X677926Y434340D02*
X862405D01*
X567690Y38354D02*
X603377Y74041D01*
X567182Y38354D02*
X567690D01*
X597925Y55127D02*
X601243D01*
X603377Y74041D02*
Y231267D01*
X581914Y39116D02*
X597925Y55127D01*
X601243D02*
X760730Y214614D01*
Y366268D01*
X252984Y88392D02*
Y122682D01*
X243205Y121539D02*
X244348Y122682D01*
X252984D01*
X243205Y40005D02*
Y121539D01*
X242570Y39370D02*
X243205Y40005D01*
X842010Y281660D02*
X861770Y261900D01*
Y180340D02*
Y261900D01*
X749410Y68493D02*
X753161D01*
X810970Y126302D02*
Y180340D01*
X740875Y59605D02*
Y59959D01*
X749410Y68493D01*
X753161D02*
X810970Y126302D01*
X329823Y711708D02*
X702564D01*
X708406Y705866D01*
X309626Y691511D02*
X329823Y711708D01*
X310896Y411738D02*
X318770Y419612D01*
Y685038D02*
X333502Y699770D01*
X318770Y419612D02*
Y685038D01*
X498602Y354584D02*
X614172Y470154D01*
X269494Y364236D02*
X279146Y354584D01*
X498602D01*
X614172Y470154D02*
X813939D01*
X814832Y471047D02*
Y623062D01*
X813939Y470154D02*
X814832Y471047D01*
X269317Y364413D02*
X269494Y364236D01*
X269317Y364413D02*
Y498779D01*
X258318Y509778D02*
X269317Y498779D01*
X324866Y327152D02*
X325374Y327660D01*
X100838Y327152D02*
X324866D01*
X92710Y335280D02*
X100838Y327152D01*
X92710Y335280D02*
Y491236D01*
X240407Y592836D02*
X241300Y591943D01*
X150114Y592836D02*
X240407D01*
X241300Y513080D02*
Y591943D01*
X244602Y509778D02*
X258318D01*
X241300Y513080D02*
X244602Y509778D01*
X309626Y421640D02*
Y691511D01*
X299212Y411226D02*
X309626Y421640D01*
X310896Y411226D02*
Y411738D01*
X333502Y699770D02*
X702056D01*
X290576Y411226D02*
X299212D01*
X702056Y699770D02*
X708152Y693674D01*
D59*
X277114Y393374D02*
Y453450D01*
X280090Y390398D02*
X296074D01*
X277114Y393374D02*
X280090Y390398D01*
X303784Y480120D02*
Y540512D01*
X283718Y560578D02*
X303784Y540512D01*
X277114Y453450D02*
X303784Y480120D01*
D60*
X765875Y106105D02*
D03*
X123955Y759765D02*
D03*
D61*
X800875Y59605D02*
D03*
X740875D02*
D03*
X148955Y806265D02*
D03*
X88955D02*
D03*
D62*
X861770Y180340D02*
D03*
X836370D02*
D03*
X810970D02*
D03*
X612140Y337820D02*
D03*
Y312420D02*
D03*
Y287020D02*
D03*
X532130Y830580D02*
D03*
Y805180D02*
D03*
Y779780D02*
D03*
D63*
X862405Y434340D02*
D03*
Y579120D02*
D03*
X173990Y252984D02*
D03*
Y278384D02*
D03*
Y202184D02*
D03*
Y227584D02*
D03*
X270510Y252984D02*
D03*
Y278384D02*
D03*
Y202184D02*
D03*
Y227584D02*
D03*
X223520Y252984D02*
D03*
Y278384D02*
D03*
Y202184D02*
D03*
Y227584D02*
D03*
X316865Y252984D02*
D03*
Y278384D02*
D03*
Y202184D02*
D03*
Y227584D02*
D03*
X363220Y252984D02*
D03*
Y278384D02*
D03*
Y202184D02*
D03*
Y227584D02*
D03*
X408940Y252984D02*
D03*
Y278384D02*
D03*
Y202184D02*
D03*
Y227584D02*
D03*
X258318Y560578D02*
D03*
X283718D02*
D03*
X258318Y535178D02*
D03*
X283718D02*
D03*
X258318Y509778D02*
D03*
X283718D02*
D03*
X862405Y528320D02*
D03*
Y502920D02*
D03*
Y553720D02*
D03*
Y383540D02*
D03*
Y358140D02*
D03*
Y408940D02*
D03*
X398780Y836025D02*
D03*
X373380D02*
D03*
X449580D02*
D03*
X424180D02*
D03*
Y792480D02*
D03*
X449580D02*
D03*
X373380D02*
D03*
X398780D02*
D03*
X267970Y39370D02*
D03*
X242570D02*
D03*
X318770D02*
D03*
X293370D02*
D03*
X448310D02*
D03*
X422910D02*
D03*
X499110D02*
D03*
X473710D02*
D03*
X127000Y713740D02*
D03*
X152400D02*
D03*
X76200D02*
D03*
X101600D02*
D03*
D64*
X674000Y871538D02*
D03*
Y824038D02*
D03*
X748400D02*
D03*
Y871538D02*
D03*
D65*
X727000Y815022D02*
D03*
X719002Y827058D02*
D03*
X703002D02*
D03*
X711001Y815022D02*
D03*
X695001D02*
D03*
D66*
X842010Y281660D02*
D03*
Y246660D02*
D03*
D67*
X131560Y73953D02*
D03*
X66560D02*
D03*
D68*
X709930Y338328D02*
D03*
X655066Y411480D02*
D03*
X617220Y185420D02*
D03*
X777240Y392176D02*
D03*
X760730Y366268D02*
D03*
X339344Y84582D02*
D03*
X315976Y92456D02*
D03*
X535940Y84074D02*
D03*
X542544Y102362D02*
D03*
X319786Y106680D02*
D03*
X340868Y119380D02*
D03*
X581914Y39116D02*
D03*
X570230Y76454D02*
D03*
X567182Y38354D02*
D03*
X574040Y116078D02*
D03*
X252984Y122682D02*
D03*
X444500Y101219D02*
D03*
X381000Y76454D02*
D03*
X765556Y542290D02*
D03*
X814832Y623062D02*
D03*
X790956Y556260D02*
D03*
X269494Y364236D02*
D03*
X261874Y382778D02*
D03*
X325374Y327660D02*
D03*
X92710Y491236D02*
D03*
X296418Y390398D02*
D03*
X261620Y106680D02*
D03*
X150114Y592836D02*
D03*
X82042Y383540D02*
D03*
X310896Y411226D02*
D03*
X290576D02*
D03*
X317373Y373888D02*
D03*
Y390398D02*
D03*
X419608Y483870D02*
D03*
X390596Y467050D02*
D03*
X376174Y400558D02*
D03*
X653542Y554228D02*
D03*
X708152Y693674D02*
D03*
X337566Y482854D02*
D03*
X708406Y705866D02*
D03*
X708914Y661543D02*
D03*
X728345Y772414D02*
D03*
X531622Y743458D02*
D03*
X663956Y561340D02*
D03*
X651764Y537210D02*
D03*
X717550Y654812D02*
D03*
X707263Y718820D02*
D03*
X636270Y599440D02*
D03*
X539496Y751586D02*
D03*
X640842Y743458D02*
D03*
X798830Y671322D02*
D03*
X240030Y752856D02*
D03*
X202438Y829818D02*
D03*
X80772Y207010D02*
D03*
Y297180D02*
D03*
X82042Y474980D02*
D03*
X31750Y565150D02*
D03*
X23876Y607060D02*
D03*
X89916Y607568D02*
D03*
X156972Y534670D02*
D03*
X205994Y396748D02*
D03*
X376174Y371348D02*
D03*
X366014Y511048D02*
D03*
X220980Y101600D02*
D03*
X609854Y72898D02*
D03*
X740156Y584200D02*
D03*
X717296Y556260D02*
D03*
M02*
