M48
;Layer_Color=9474304
;FILE_FORMAT=4:4
METRIC,LZ
;TYPE=PLATED
T3F00S00C0.8000
T6F00S00C1.0000
T9F00S00C1.2000
%
G90
G05
T03
G00X00674Y00818538
M15
G01Y00829539
M16
G00X00674Y00866038
M15
G01Y00877039
M16
G00X007484Y00866038
M15
G01Y00877039
M16
G00X007484Y00818538
M15
G01Y00829539
M16
T06
G00X00773375Y00106105
M15
G01X00758375
M16
G00X00116455Y00759765
M15
G01X00131455
M16
T09
G00X00740875Y00050605
M15
G01Y00068605
M16
G00X00800875Y00050605
M15
G01Y00068605
M16
G00X00088955Y00815265
M15
G01Y00797265
M16
G00X00148955Y00815265
M15
G01Y00797265
M16
M17
M30
